<svg width="256" height="256" viewBox="0 0 256 256" fill="none" xmlns="http://www.w3.org/2000/svg">
<rect width="256" height="256" rx="32" fill="#151515"/>
<mask id="mask0_2_64" style="mask-type:alpha" maskUnits="userSpaceOnUse" x="0" y="0" width="256" height="256">
<rect width="256" height="256" fill="#D9D9D9"/>
</mask>
<g mask="url(#mask0_2_64)">
<path d="M58.8034 188.472H124.991V170.421H58.8034V188.472ZM94.906 137.026H161.094V118.974H94.906V137.026ZM131.009 85.5795H197.197V67.5282H131.009V85.5795ZM37.7436 236.308C32.9299 236.308 28.7179 234.503 25.1077 230.892C21.4974 227.282 19.6923 223.07 19.6923 218.256V37.7436C19.6923 32.9299 21.4974 28.7179 25.1077 25.1077C28.7179 21.4974 32.9299 19.6923 37.7436 19.6923H218.256C223.07 19.6923 227.282 21.4974 230.892 25.1077C234.503 28.7179 236.308 32.9299 236.308 37.7436V218.256C236.308 223.07 234.503 227.282 230.892 230.892C227.282 234.503 223.07 236.308 218.256 236.308H37.7436ZM37.7436 218.256H218.256V37.7436H37.7436V218.256Z" fill="#D9D9D9"/>
</g>
</svg>
