<svg xmlns="http://www.w3.org/2000/svg" height="48px" viewBox="0 -960 960 960" width="48px" fill="#e3e3e3"><path d="M276.3-545.3q-48.3-48.29-48.3-124 0-75.7 48.3-123.7 48.29-48 124-48 75.7 0 124.7 48t49 123.7q0 75.71-49 124Q476-497 400.3-497q-75.71 0-124-48.3ZM59-134v-116.55q0-44.45 24.44-77.46Q107.88-361.03 140-376q70-32 136-47t124.53-15q5.47 0 18.47.5t20-.5q-8 15-17.5 42t-9.5 50h-9.53q-53.47 0-108.3 10.97-54.84 10.97-111.05 37.43-16.05 9.13-24.59 22.18Q150-262.38 150-247v22h258q4 26 19.5 51.5T457-134H59Zm618.87 31L669-171q-16-3-31.5-12T611-204l-58 14-32-56 49-46q-4-5.84-3.5-20.42Q567-327 570-333l-49-47 32-55 58 13q11-10 26.41-18.84Q652.82-449.69 669-454l8.87-69H748l11 69q15 4 30.48 13.36Q804.97-431.29 816-422l57-13 34 55-51 47q6 6.84 5 20.92-1 14.08-5 20.08l51 46-34 56-57-14q-11 12-26.5 20.5T759-171l-11 68h-70.13Zm89.04-156.17Q787-279.34 787-312.67t-20.29-53.83q-20.29-20.5-53.5-20.5T660-366.33q-20 20.67-20 54T660.26-259q20.25 20 53.41 20t53.24-20.17ZM458.5-611.54q23.5-23.54 23.5-58t-23.33-57.96q-23.33-23.5-58-23.5t-58.17 23.54q-23.5 23.54-23.5 58t23.33 57.96q23.33 23.5 58 23.5t58.17-23.54ZM401-669Zm7 444Z"/></svg>